<svg width="200" height="200" viewBox="0 0 200 200" fill="none" xmlns="http://www.w3.org/2000/svg">
<path d="M37.056 126.856L31.124 126.968L28.12 127.012C27.116 127.032 26.108 127.028 25.1 127.036H24.924V126.856L24.904 121.804V121.604H25.104L31.084 121.628C33.076 121.628 35.072 121.672 37.064 121.692H37.176V121.8C37.168 122.656 37.14 123.508 37.124 124.352L37.068 126.856H37.056ZM37.056 126.856L37 124.304C36.98 123.464 36.956 122.628 36.948 121.8L37.056 121.908C35.064 121.928 33.068 121.972 31.076 121.972L25.096 121.996L25.296 121.796L25.276 126.848L25.096 126.668C26.084 126.676 27.068 126.668 28.056 126.692L31.028 126.736L37.052 126.848L37.056 126.856Z" fill="#EBEBEB"/>
<path d="M30.384 133.228L24.452 133.34L21.448 133.384C20.444 133.404 19.436 133.4 18.428 133.408H18.252V133.228L18.232 128.176V127.976H18.432L24.412 128C26.404 128 28.4 128.044 30.392 128.064H30.504V128.172C30.496 129.028 30.468 129.88 30.452 130.724L30.396 133.228H30.384ZM30.384 133.228L30.328 130.676C30.308 129.836 30.284 129 30.276 128.172L30.384 128.28C28.392 128.3 26.396 128.344 24.404 128.344L18.424 128.368L18.624 128.168L18.604 133.22L18.424 133.04C19.412 133.048 20.396 133.04 21.384 133.06L24.356 133.104L30.38 133.216L30.384 133.228Z" fill="#EBEBEB"/>
<path d="M30.384 23.884L24.452 23.996L21.448 24.04C20.444 24.06 19.436 24.056 18.428 24.064H18.252V23.884L18.232 18.832V18.632H18.432L24.412 18.656C26.404 18.656 28.4 18.7 30.392 18.72H30.504V18.828C30.496 19.684 30.468 20.536 30.452 21.38L30.396 23.884H30.384ZM30.384 23.884L30.328 21.332C30.308 20.492 30.284 19.656 30.276 18.828L30.384 18.936C28.392 18.956 26.396 19 24.404 19L18.424 19.024L18.624 18.824L18.604 23.876L18.424 23.696C19.412 23.704 20.396 23.696 21.384 23.716L24.356 23.76L30.38 23.872L30.384 23.884Z" fill="#EBEBEB"/>
<path d="M181.576 23.884L175.644 23.996L172.64 24.04C171.636 24.06 170.628 24.056 169.62 24.064H169.444V23.884L169.424 18.832V18.632H169.624L175.604 18.656C177.596 18.656 179.592 18.7 181.584 18.72H181.696V18.828C181.688 19.684 181.66 20.536 181.644 21.38L181.588 23.884H181.576ZM181.576 23.884L181.52 21.332C181.5 20.492 181.476 19.656 181.468 18.828L181.576 18.936C179.584 18.956 177.588 19 175.596 19L169.616 19.024L169.816 18.824L169.796 23.876L169.616 23.696C170.604 23.704 171.588 23.696 172.576 23.716L175.548 23.76L181.572 23.872L181.576 23.884Z" fill="#EBEBEB"/>
<path d="M174.904 30.256L168.972 30.368L165.968 30.412C164.964 30.432 163.956 30.428 162.948 30.432H162.772V30.252L162.752 25.2V25H162.952L168.932 25.024C170.924 25.024 172.92 25.068 174.912 25.088H175.024V25.196C175.016 26.052 174.988 26.904 174.972 27.748L174.916 30.252L174.904 30.256ZM174.904 30.256L174.848 27.704C174.828 26.864 174.804 26.028 174.796 25.2L174.904 25.308C172.912 25.328 170.916 25.372 168.924 25.372L162.944 25.396L163.144 25.196L163.124 30.248L162.944 30.068C163.932 30.076 164.916 30.068 165.904 30.092L168.876 30.136L174.9 30.248L174.904 30.256Z" fill="#EBEBEB"/>
<path d="M144.276 89.376L138.344 89.488L135.34 89.532C134.336 89.552 133.328 89.548 132.32 89.556H132.144V89.376L132.124 84.324V84.124H132.324L138.304 84.148C140.296 84.148 142.292 84.192 144.284 84.212H144.396V84.32C144.388 85.176 144.36 86.028 144.344 86.872L144.288 89.376H144.276ZM144.276 89.376L144.22 86.824C144.2 85.984 144.176 85.148 144.168 84.32L144.276 84.428C142.284 84.448 140.288 84.492 138.296 84.492L132.316 84.516L132.516 84.316L132.496 89.368L132.316 89.188C133.304 89.196 134.288 89.188 135.276 89.208L138.248 89.252L144.272 89.364L144.276 89.376Z" fill="#EBEBEB"/>
<path d="M137.604 95.748L131.672 95.86L128.668 95.904C127.664 95.924 126.656 95.92 125.648 95.928H125.472V95.748L125.452 90.696V90.496H125.652L131.632 90.52C133.624 90.52 135.62 90.564 137.612 90.584H137.724V90.692C137.716 91.548 137.688 92.4 137.672 93.244L137.616 95.748H137.604ZM137.604 95.748L137.548 93.196C137.528 92.356 137.504 91.52 137.496 90.692L137.604 90.8C135.612 90.82 133.616 90.864 131.624 90.864L125.644 90.888L125.844 90.688L125.824 95.74L125.644 95.56C126.632 95.568 127.616 95.56 128.604 95.584L131.576 95.628L137.6 95.74L137.604 95.748Z" fill="#EBEBEB"/>
<path d="M130.96 89.376L125.028 89.488L122.024 89.532C121.02 89.552 120.012 89.548 119.004 89.556H118.828V89.376L118.808 84.324V84.124H119.008L124.988 84.148C126.98 84.148 128.976 84.192 130.968 84.212H131.08V84.32C131.072 85.176 131.044 86.028 131.028 86.872L130.972 89.376H130.96ZM130.96 89.376L130.904 86.824C130.884 85.984 130.86 85.148 130.852 84.32L130.96 84.428C128.968 84.448 126.972 84.492 124.98 84.492L119 84.516L119.2 84.316L119.18 89.368L119 89.188C119.988 89.196 120.972 89.188 121.96 89.208L124.932 89.252L130.956 89.364L130.96 89.376Z" fill="#EBEBEB"/>
<path d="M181.576 133.228L175.644 133.34L172.64 133.384C171.636 133.404 170.628 133.4 169.62 133.408H169.444V133.228L169.424 128.176V127.976H169.624L175.604 128C177.596 128 179.592 128.044 181.584 128.064H181.696V128.172C181.688 129.028 181.66 129.88 181.644 130.724L181.588 133.228H181.576ZM181.576 133.228L181.52 130.676C181.5 129.836 181.476 129 181.468 128.172L181.576 128.28C179.584 128.3 177.588 128.344 175.596 128.344L169.616 128.368L169.816 128.168L169.796 133.22L169.616 133.04C170.604 133.048 171.588 133.04 172.576 133.06L175.548 133.104L181.572 133.216L181.576 133.228Z" fill="#EBEBEB"/>
<path d="M79.972 38.912L74.04 39.024L71.036 39.068C70.032 39.088 69.024 39.084 68.016 39.088H67.84V38.908L67.82 33.856V33.656H68.02L74 33.68C75.992 33.68 77.988 33.724 79.98 33.744H80.092V33.852C80.084 34.708 80.056 35.56 80.04 36.404L79.984 38.908L79.972 38.912ZM79.972 38.912L79.916 36.36C79.896 35.52 79.872 34.684 79.864 33.856L79.972 33.964C77.98 33.984 75.984 34.028 73.992 34.028L68.012 34.052L68.212 33.852L68.192 38.904L68.012 38.724C69 38.732 69.984 38.724 70.972 38.744L73.944 38.788L79.968 38.9L79.972 38.912Z" fill="#EBEBEB"/>
<path d="M169.292 72.388L171.648 68.592L170.484 67.872C170.144 67.66 169.956 67.272 169.992 66.872C170.012 66.652 170.02 66.428 170.012 66.204C170.004 65.804 170.212 65.428 170.568 65.24L171.772 64.592L169.66 60.652L168.456 61.3C168.104 61.488 167.676 61.456 167.348 61.228C167.164 61.1 166.976 60.984 166.78 60.876C166.428 60.684 166.208 60.316 166.22 59.912L166.264 58.544L161.8 58.404L161.76 59.776C161.748 60.18 161.5 60.528 161.136 60.7C161.036 60.748 160.94 60.796 160.844 60.848C160.748 60.9 160.652 60.956 160.56 61.012C160.216 61.22 159.792 61.232 159.452 61.02L158.28 60.296L155.924 64.092L157.088 64.816C157.428 65.028 157.616 65.416 157.58 65.816C157.56 66.036 157.552 66.26 157.56 66.48C157.568 66.88 157.36 67.252 157.004 67.444L155.8 68.092L157.912 72.032L159.116 71.384C159.468 71.196 159.896 71.228 160.224 71.456C160.408 71.584 160.596 71.7 160.792 71.804C161.144 71.996 161.364 72.364 161.352 72.768L161.308 74.14L165.772 74.28L165.816 72.908C165.828 72.508 166.076 72.16 166.436 71.988C166.536 71.94 166.632 71.892 166.732 71.84C166.828 71.788 166.924 71.732 167.016 71.676C167.36 71.468 167.788 71.456 168.132 71.668L169.296 72.388H169.292ZM165.512 69.568C163.732 70.524 161.516 69.856 160.56 68.072C159.604 66.292 160.272 64.072 162.052 63.116C163.832 62.16 166.052 62.832 167.008 64.612C167.964 66.392 167.292 68.612 165.512 69.564V69.568Z" fill="#EBEBEB"/>
<path d="M40.612 115.404L42.968 111.608L41.804 110.888C41.464 110.676 41.276 110.288 41.312 109.888C41.332 109.668 41.34 109.444 41.332 109.22C41.324 108.82 41.532 108.444 41.888 108.256L43.092 107.608L40.98 103.668L39.776 104.316C39.424 104.504 38.996 104.472 38.668 104.244C38.484 104.116 38.296 104 38.1 103.892C37.748 103.7 37.528 103.332 37.54 102.928L37.584 101.56L33.12 101.42L33.08 102.792C33.068 103.196 32.82 103.544 32.456 103.716C32.356 103.764 32.26 103.812 32.164 103.864C32.068 103.916 31.972 103.972 31.88 104.028C31.536 104.236 31.112 104.248 30.772 104.036L29.6 103.312L27.244 107.108L28.408 107.832C28.748 108.044 28.936 108.432 28.9 108.832C28.88 109.052 28.872 109.276 28.88 109.496C28.888 109.896 28.68 110.268 28.324 110.46L27.12 111.108L29.232 115.048L30.436 114.4C30.788 114.212 31.216 114.244 31.544 114.472C31.728 114.6 31.916 114.716 32.112 114.82C32.464 115.012 32.684 115.38 32.672 115.784L32.628 117.156L37.092 117.296L37.136 115.924C37.148 115.524 37.396 115.176 37.756 115.004C37.856 114.956 37.952 114.908 38.052 114.856C38.148 114.804 38.244 114.748 38.336 114.692C38.68 114.484 39.108 114.472 39.452 114.684L40.616 115.404H40.612ZM36.832 112.584C35.052 113.54 32.836 112.872 31.88 111.088C30.924 109.308 31.592 107.088 33.372 106.132C35.152 105.176 37.372 105.848 38.328 107.628C39.284 109.408 38.612 111.628 36.832 112.58V112.584Z" fill="#EBEBEB"/>
<path d="M86.348 42.696L84.784 39.984L83.956 40.464C83.712 40.604 83.412 40.592 83.176 40.436C83.044 40.352 82.912 40.272 82.772 40.2C82.52 40.072 82.36 39.82 82.36 39.54V38.58H79.228V39.54C79.228 39.82 79.068 40.072 78.816 40.2C78.676 40.272 78.54 40.348 78.412 40.436C78.176 40.588 77.876 40.604 77.632 40.464L76.804 39.984L75.24 42.696L76.072 43.176C76.316 43.316 76.452 43.584 76.436 43.868C76.436 43.944 76.432 44.02 76.432 44.1C76.432 44.18 76.432 44.252 76.436 44.332C76.452 44.612 76.316 44.88 76.072 45.02L75.236 45.504L76.8 48.216L77.632 47.736C77.876 47.596 78.176 47.608 78.412 47.764C78.54 47.848 78.676 47.928 78.816 47.996C79.068 48.124 79.228 48.376 79.228 48.656V49.616H82.36V48.656C82.36 48.376 82.52 48.124 82.772 47.996C82.912 47.924 83.044 47.848 83.176 47.764C83.412 47.608 83.712 47.596 83.956 47.736L84.788 48.216L86.352 45.504L85.52 45.024C85.276 44.884 85.144 44.616 85.156 44.336C85.156 44.26 85.16 44.18 85.16 44.104C85.16 44.028 85.16 43.952 85.156 43.872C85.14 43.592 85.276 43.324 85.52 43.18L86.352 42.7L86.348 42.696ZM83.356 44.096C83.356 45.512 82.208 46.66 80.792 46.66C79.376 46.66 78.228 45.512 78.228 44.096C78.228 42.68 79.376 41.532 80.792 41.532C82.208 41.532 83.356 42.68 83.356 44.096Z" fill="#EBEBEB"/>
<path d="M35.536 121.536C30.308 126.652 29.432 134.572 30.532 141.504C30.56 141.66 30.804 141.62 30.804 141.472C30.804 139.892 30.756 138.328 30.76 136.768C30.788 136.696 30.812 136.628 30.84 136.56C32.204 135.568 33.46 134.448 34.236 132.912C35.108 131.196 35.452 129.26 36.12 127.464C36.184 127.292 36 127.344 35.88 127.432C32.7 129.776 31.688 132.3 30.776 135.672C30.82 133.92 30.952 132.172 31.328 130.42C32.016 127.22 33.376 124.048 35.672 121.672C35.756 121.58 35.624 121.444 35.532 121.532L35.536 121.536Z" fill="#263238"/>
<path d="M36.516 122.132C37.416 122.164 37.98 123.6 38.68 124.02C39.052 124.244 39.412 124.228 39.672 123.864C40.368 122.896 39.412 121.7 38.516 121.028C39.156 121.292 39.688 121.756 40.38 121.884C40.8 121.96 41.124 121.804 41.22 121.38C41.524 120.06 39.868 119.472 38.728 119.444C39.28 119.06 40.86 118.02 40.02 117.508C39.168 116.992 37.316 118.484 36.712 118.976C35.824 119.696 34.764 120.776 34.724 121.904C34.672 123.22 35.824 122.412 36.516 122.136V122.132Z" fill="#B9B8F1"/>
<path opacity="0.1" d="M36.516 122.132C37.416 122.164 37.98 123.6 38.68 124.02C39.052 124.244 39.412 124.228 39.672 123.864C40.368 122.896 39.412 121.7 38.516 121.028C39.156 121.292 39.688 121.756 40.38 121.884C40.8 121.96 41.124 121.804 41.22 121.38C41.524 120.06 39.868 119.472 38.728 119.444C39.28 119.06 40.86 118.02 40.02 117.508C39.168 116.992 37.316 118.484 36.712 118.976C35.824 119.696 34.764 120.776 34.724 121.904C34.672 123.22 35.824 122.412 36.516 122.136V122.132Z" fill="black"/>
<path d="M36.256 122.356C37.404 121.832 39.616 122.584 39.804 122.152C40.184 121.268 38.42 120.66 37.468 120.54C38.344 120.304 40.028 119.924 39.976 119.076C39.912 118.044 37.396 118.932 36.124 119.908C34.52 121.136 34.532 122.324 34.796 122.564C35.16 122.892 36.072 122.444 36.26 122.356H36.256Z" fill="#B9B8F1"/>
<path d="M23.628 121.028C29.048 125.944 30.224 133.82 29.388 140.792C29.364 140.952 29.12 140.916 29.116 140.768C29.056 139.192 29.044 137.624 28.98 136.068C28.948 135.996 28.924 135.932 28.892 135.86C27.492 134.92 26.196 133.848 25.36 132.344C24.424 130.66 24.004 128.74 23.272 126.972C23.204 126.804 23.388 126.848 23.512 126.928C26.78 129.152 27.888 131.632 28.928 134.968C28.82 133.22 28.62 131.476 28.176 129.74C27.368 126.568 25.888 123.452 23.5 121.164C23.412 121.076 23.54 120.932 23.632 121.02L23.628 121.028Z" fill="#263238"/>
<path d="M22.672 121.664C21.776 121.728 21.264 123.188 20.58 123.632C20.22 123.868 19.856 123.868 19.584 123.512C18.852 122.568 19.76 121.34 20.628 120.636C19.996 120.924 19.484 121.408 18.8 121.564C18.384 121.656 18.052 121.512 17.94 121.092C17.584 119.784 19.22 119.132 20.356 119.06C19.792 118.696 18.172 117.716 18.992 117.172C19.824 116.624 21.732 118.044 22.356 118.512C23.272 119.2 24.372 120.236 24.456 121.36C24.56 122.672 23.376 121.908 22.676 121.66L22.672 121.664Z" fill="#B9B8F1"/>
<path opacity="0.1" d="M22.672 121.664C21.776 121.728 21.264 123.188 20.58 123.632C20.22 123.868 19.856 123.868 19.584 123.512C18.852 122.568 19.76 121.34 20.628 120.636C19.996 120.924 19.484 121.408 18.8 121.564C18.384 121.656 18.052 121.512 17.94 121.092C17.584 119.784 19.22 119.132 20.356 119.06C19.792 118.696 18.172 117.716 18.992 117.172C19.824 116.624 21.732 118.044 22.356 118.512C23.272 119.2 24.372 120.236 24.456 121.36C24.56 122.672 23.376 121.908 22.676 121.66L22.672 121.664Z" fill="black"/>
<path d="M22.94 121.876C21.772 121.396 19.592 122.232 19.388 121.804C18.972 120.932 20.716 120.26 21.664 120.104C20.78 119.9 19.084 119.584 19.104 118.736C19.128 117.7 21.676 118.492 22.984 119.42C24.632 120.588 24.668 121.776 24.412 122.024C24.06 122.364 23.136 121.952 22.94 121.872V121.876Z" fill="#B9B8F1"/>
<path d="M29.172 134.012C29.572 136.604 30.068 139.28 30.856 141.784C30.932 142.012 31.268 141.952 31.236 141.708C30.88 139.312 30.232 136.964 29.876 134.568C29.516 132.144 29.32 129.688 29.46 127.236C29.688 123.2 30.784 118.908 33.416 115.748C33.472 115.672 33.352 115.568 33.292 115.636C28.02 121.784 28.86 129.32 28.864 129.996C28.116 127.452 27.348 124.532 24.524 121.944C24.404 121.832 24.308 121.884 24.328 122.076C24.832 126.796 26.144 129.26 28.88 131.784C28.956 132.532 29.056 133.276 29.172 134.012Z" fill="#263238"/>
<path d="M33.46 116.456C34.408 116.036 35.716 117.244 36.656 117.324C37.152 117.368 37.52 117.172 37.608 116.664C37.84 115.308 36.252 114.548 34.984 114.304C35.78 114.256 36.564 114.468 37.348 114.256C37.82 114.124 38.08 113.8 37.968 113.308C37.62 111.784 35.604 112.008 34.408 112.552C34.788 111.876 35.904 110 34.772 109.892C33.632 109.788 32.456 112.264 32.076 113.08C31.516 114.276 30.96 115.928 31.484 117.12C32.092 118.512 32.88 117.092 33.46 116.456Z" fill="#B9B8F1"/>
<path opacity="0.1" d="M33.46 116.456C34.408 116.036 35.716 117.244 36.656 117.324C37.152 117.368 37.52 117.172 37.608 116.664C37.84 115.308 36.252 114.548 34.984 114.304C35.78 114.256 36.564 114.468 37.348 114.256C37.82 114.124 38.08 113.8 37.968 113.308C37.62 111.784 35.604 112.008 34.408 112.552C34.788 111.876 35.904 110 34.772 109.892C33.632 109.788 32.456 112.264 32.076 113.08C31.516 114.276 30.96 115.928 31.484 117.12C32.092 118.512 32.88 117.092 33.46 116.456Z" fill="black"/>
<path d="M33.3 116.816C34.228 115.696 36.9 115.364 36.876 114.816C36.824 113.704 34.688 113.964 33.64 114.32C34.432 113.632 35.984 112.392 35.504 111.54C34.92 110.5 32.756 112.688 31.924 114.34C30.88 116.424 31.488 117.648 31.88 117.764C32.42 117.92 33.14 116.996 33.296 116.812L33.3 116.816Z" fill="#B9B8F1"/>
<path d="M25.7 135.432L23.376 153.2H37.524C37.232 151.624 34.6 135.412 34.6 135.412L25.7 135.432Z" fill="#B9B8F1"/>
<path d="M17.348 153.256L38.012 153.16L58.676 153.124L100 153.056L141.324 153.124L161.988 153.16L182.652 153.256L161.988 153.356L141.324 153.392L100 153.456L58.676 153.388L38.012 153.356L17.348 153.256Z" fill="#263238"/>
<path d="M100 188.048C132.929 188.048 159.624 184.273 159.624 179.616C159.624 174.959 132.929 171.184 100 171.184C67.0706 171.184 40.376 174.959 40.376 179.616C40.376 184.273 67.0706 188.048 100 188.048Z" fill="#EBEBEB"/>
<path d="M108.24 125.54H94.036V126.704H108.24V125.54Z" fill="#37474F"/>
<path d="M108.24 127.052H94.036V128.216H108.24V127.052Z" fill="#37474F"/>
<path d="M108.24 128.568H94.036V129.732H108.24V128.568Z" fill="#37474F"/>
<path d="M108.24 130.084H94.036V131.248H108.24V130.084Z" fill="#37474F"/>
<path d="M108.24 131.6H94.036V132.764H108.24V131.6Z" fill="#37474F"/>
<path d="M114.392 161.836H87.384V163H114.392V161.836Z" fill="#37474F"/>
<path d="M114.392 163.352H87.384V164.516H114.392V163.352Z" fill="#37474F"/>
<path d="M114.392 164.868H87.384V166.032H114.392V164.868Z" fill="#37474F"/>
<path d="M114.392 166.384H87.384V167.548H114.392V166.384Z" fill="#37474F"/>
<path d="M114.392 167.9H87.384V169.064H114.392V167.9Z" fill="#37474F"/>
<path d="M75.532 115.92C75.544 115.764 69.62 113.78 69.62 113.78L69.968 93.424L77.824 91.74L75.528 115.92H75.532Z" fill="#B9B8F1"/>
<path opacity="0.2" d="M75.532 115.92C75.544 115.764 69.62 113.78 69.62 113.78L69.968 93.424L77.824 91.74L75.528 115.92H75.532Z" fill="black"/>
<path d="M129.796 123.908C129.836 123.756 136.084 123.932 136.084 123.932L142.76 104.7L135.964 100.412L129.796 123.908Z" fill="#B9B8F1"/>
<path opacity="0.2" d="M129.796 123.908C129.836 123.756 136.084 123.932 136.084 123.932L142.76 104.7L135.964 100.412L129.796 123.908Z" fill="black"/>
<path d="M74.392 123.416C74.392 123.416 76.588 90.496 78.516 79.668C78.516 79.668 118.284 82.676 139.752 90.88C139.752 90.88 128.684 129.332 128.112 131.24C128.112 131.24 100.108 125.724 74.396 123.416H74.392Z" fill="#B9B8F1"/>
<path opacity="0.1" d="M109.888 84.06C109.24 88.024 108.588 91.988 107.912 95.944L105.864 107.816L105.752 107.648L119.076 110.812L125.732 112.424L132.38 114.068L125.696 112.572L119.02 111.044L105.684 107.928L105.548 107.896L105.572 107.76L107.696 95.9C108.408 91.948 109.144 88 109.888 84.052V84.06Z" fill="black"/>
<path opacity="0.1" d="M108.428 86.32C108.436 86.684 108.144 87.056 107.728 87.092C107.528 87.112 107.308 87.048 107.144 86.904C106.98 86.76 106.88 86.54 106.88 86.32C106.88 86.096 106.98 85.876 107.144 85.736C107.308 85.592 107.528 85.528 107.728 85.548C108.144 85.584 108.432 85.96 108.428 86.32ZM108.428 86.32C108.428 86.136 108.344 85.956 108.208 85.84C108.072 85.724 107.892 85.676 107.728 85.696C107.392 85.736 107.176 86.036 107.18 86.32C107.176 86.604 107.392 86.904 107.728 86.944C107.892 86.964 108.072 86.916 108.208 86.8C108.344 86.684 108.424 86.504 108.428 86.32Z" fill="black"/>
<path opacity="0.1" d="M107.728 91.22C107.736 91.584 107.444 91.956 107.028 91.992C106.828 92.012 106.608 91.948 106.444 91.804C106.28 91.66 106.18 91.44 106.18 91.22C106.18 90.996 106.28 90.776 106.444 90.636C106.608 90.492 106.828 90.428 107.028 90.448C107.444 90.484 107.732 90.86 107.728 91.22ZM107.728 91.22C107.728 91.036 107.644 90.856 107.508 90.74C107.372 90.624 107.192 90.576 107.028 90.596C106.692 90.636 106.476 90.936 106.48 91.22C106.476 91.504 106.692 91.804 107.028 91.844C107.192 91.864 107.372 91.816 107.508 91.7C107.644 91.584 107.724 91.404 107.728 91.22Z" fill="black"/>
<path opacity="0.1" d="M106.868 96.396C106.876 96.76 106.584 97.132 106.168 97.168C105.968 97.188 105.748 97.124 105.584 96.98C105.42 96.836 105.32 96.616 105.32 96.396C105.32 96.176 105.42 95.952 105.584 95.812C105.748 95.668 105.968 95.604 106.168 95.624C106.584 95.66 106.872 96.036 106.868 96.396ZM106.868 96.396C106.868 96.212 106.784 96.032 106.648 95.916C106.512 95.8 106.332 95.752 106.168 95.772C105.832 95.812 105.616 96.112 105.62 96.396C105.616 96.68 105.832 96.98 106.168 97.02C106.332 97.04 106.512 96.992 106.648 96.876C106.784 96.76 106.864 96.58 106.868 96.396Z" fill="black"/>
<path opacity="0.1" d="M106.008 101.572C106.016 101.936 105.724 102.308 105.308 102.344C105.108 102.364 104.888 102.3 104.724 102.156C104.56 102.012 104.46 101.792 104.46 101.572C104.46 101.348 104.56 101.128 104.724 100.988C104.888 100.844 105.108 100.78 105.308 100.8C105.724 100.836 106.012 101.212 106.008 101.572ZM106.008 101.572C106.008 101.388 105.924 101.208 105.788 101.092C105.652 100.976 105.472 100.928 105.308 100.948C104.972 100.988 104.756 101.288 104.76 101.572C104.756 101.856 104.972 102.156 105.308 102.196C105.472 102.216 105.652 102.168 105.788 102.052C105.924 101.936 106.004 101.756 106.008 101.572Z" fill="black"/>
<path opacity="0.1" d="M108.94 109.824C108.948 110.188 108.656 110.56 108.24 110.596C108.04 110.616 107.82 110.552 107.656 110.408C107.492 110.264 107.392 110.044 107.392 109.824C107.392 109.6 107.492 109.38 107.656 109.24C107.82 109.096 108.04 109.032 108.24 109.052C108.656 109.088 108.944 109.464 108.94 109.824ZM108.94 109.824C108.94 109.64 108.856 109.46 108.72 109.344C108.584 109.228 108.404 109.18 108.24 109.2C107.904 109.24 107.688 109.54 107.692 109.824C107.688 110.108 107.904 110.408 108.24 110.448C108.404 110.468 108.584 110.42 108.72 110.304C108.856 110.188 108.936 110.008 108.94 109.824Z" fill="black"/>
<path opacity="0.1" d="M113.824 111.016C113.832 111.38 113.54 111.752 113.124 111.788C112.924 111.808 112.704 111.744 112.54 111.6C112.376 111.456 112.276 111.236 112.276 111.016C112.276 110.792 112.376 110.572 112.54 110.432C112.704 110.288 112.924 110.224 113.124 110.244C113.54 110.28 113.828 110.656 113.824 111.016ZM113.824 111.016C113.824 110.832 113.74 110.652 113.604 110.536C113.468 110.42 113.288 110.372 113.124 110.392C112.788 110.432 112.572 110.732 112.576 111.016C112.572 111.3 112.788 111.6 113.124 111.64C113.288 111.66 113.468 111.612 113.604 111.496C113.74 111.38 113.82 111.2 113.824 111.016Z" fill="black"/>
<path opacity="0.1" d="M118.708 112.208C118.716 112.572 118.424 112.944 118.008 112.98C117.808 113 117.588 112.936 117.424 112.792C117.26 112.648 117.16 112.428 117.16 112.208C117.16 111.984 117.26 111.764 117.424 111.624C117.588 111.48 117.808 111.416 118.008 111.436C118.424 111.472 118.712 111.848 118.708 112.208ZM118.708 112.208C118.708 112.024 118.624 111.844 118.488 111.728C118.352 111.612 118.172 111.564 118.008 111.584C117.672 111.624 117.456 111.924 117.46 112.208C117.456 112.492 117.672 112.792 118.008 112.832C118.172 112.852 118.352 112.804 118.488 112.688C118.624 112.572 118.704 112.392 118.708 112.208Z" fill="black"/>
<path opacity="0.1" d="M123.596 113.4C123.604 113.764 123.312 114.136 122.896 114.172C122.696 114.192 122.476 114.128 122.312 113.984C122.148 113.84 122.048 113.62 122.048 113.4C122.048 113.176 122.148 112.956 122.312 112.816C122.476 112.672 122.696 112.608 122.896 112.628C123.312 112.664 123.6 113.04 123.596 113.4ZM123.596 113.4C123.596 113.216 123.512 113.036 123.376 112.92C123.24 112.804 123.06 112.756 122.896 112.776C122.56 112.816 122.344 113.116 122.348 113.4C122.344 113.684 122.56 113.984 122.896 114.024C123.06 114.044 123.24 113.996 123.376 113.88C123.512 113.764 123.592 113.584 123.596 113.4Z" fill="black"/>
<path opacity="0.1" d="M128.48 114.644C128.46 115.008 128.14 115.356 127.724 115.36C127.52 115.36 127.308 115.284 127.156 115.128C127.004 114.972 126.924 114.748 126.94 114.524C126.96 114.304 127.072 114.092 127.248 113.96C127.424 113.828 127.648 113.784 127.848 113.816C128.26 113.884 128.52 114.28 128.484 114.64L128.48 114.644ZM128.48 114.644C128.492 114.46 128.424 114.276 128.3 114.148C128.172 114.024 127.996 113.96 127.832 113.968C127.496 113.98 127.256 114.264 127.236 114.548C127.208 114.828 127.404 115.148 127.736 115.212C127.896 115.244 128.08 115.212 128.224 115.104C128.368 115 128.464 114.824 128.48 114.644Z" fill="black"/>
<path opacity="0.1" d="M105.148 106.744C105.156 107.108 104.864 107.48 104.448 107.516C104.248 107.536 104.028 107.472 103.864 107.328C103.7 107.184 103.6 106.964 103.6 106.744C103.6 106.52 103.7 106.3 103.864 106.16C104.028 106.016 104.248 105.952 104.448 105.972C104.864 106.008 105.152 106.384 105.148 106.744ZM105.148 106.744C105.148 106.56 105.064 106.38 104.928 106.264C104.792 106.148 104.612 106.1 104.448 106.12C104.112 106.16 103.896 106.46 103.9 106.744C103.896 107.028 104.112 107.328 104.448 107.368C104.612 107.388 104.792 107.34 104.928 107.224C105.064 107.108 105.144 106.928 105.148 106.744Z" fill="black"/>
<path opacity="0.2" d="M96.9227 115.324C101.56 111.154 101.939 104.014 97.7696 99.3768C93.5999 94.7394 86.4602 94.3602 81.8228 98.5299C77.1853 102.7 76.8061 109.839 80.9759 114.477C85.1456 119.114 92.2852 119.493 96.9227 115.324Z" fill="black"/>
<path d="M97.8419 110.123C99.6122 105.445 97.2554 100.218 92.5777 98.4477C87.9 96.6773 82.6728 99.0342 80.9025 103.712C79.1321 108.39 81.489 113.617 86.1667 115.387C90.8444 117.157 96.0715 114.801 97.8419 110.123Z" fill="#263238"/>
<path d="M88.8291 103.598L86.7127 103.255L86.3699 105.372L88.4863 105.714L88.8291 103.598Z" fill="#B9B8F1"/>
<path d="M87.0533 101.138L84.9369 100.795L84.5941 102.911L86.7105 103.254L87.0533 101.138Z" fill="#B9B8F1"/>
<path d="M95.521 102.51L93.4046 102.167L93.0618 104.284L95.1782 104.626L95.521 102.51Z" fill="#B9B8F1"/>
<path d="M85.6886 109.559L83.5722 109.217L83.2294 111.333L85.3458 111.676L85.6886 109.559Z" fill="#B9B8F1"/>
<path d="M94.1604 110.932L92.0439 110.589L91.7012 112.705L93.8176 113.048L94.1604 110.932Z" fill="#B9B8F1"/>
<path d="M88.149 107.783L86.0325 107.441L85.6897 109.557L87.8062 109.9L88.149 107.783Z" fill="#B9B8F1"/>
<path d="M90.6048 106.035L88.4884 105.692L88.1456 107.808L90.262 108.151L90.6048 106.035Z" fill="#B9B8F1"/>
<path d="M93.0613 104.282L90.9449 103.939L90.6021 106.055L92.7185 106.398L93.0613 104.282Z" fill="#B9B8F1"/>
<path d="M92.3885 108.468L90.272 108.125L89.9292 110.242L92.0457 110.584L92.3885 108.468Z" fill="#B9B8F1"/>
<path d="M128.41 118.804C132.363 113.98 131.656 106.866 126.833 102.913C122.009 98.9606 114.894 99.667 110.941 104.491C106.989 109.315 107.695 116.43 112.519 120.382C117.343 124.335 124.458 123.628 128.41 118.804Z" fill="#B9B8F1"/>
<path opacity="0.2" d="M128.41 118.804C132.363 113.98 131.656 106.866 126.833 102.913C122.009 98.9606 114.894 99.667 110.941 104.491C106.989 109.315 107.695 116.43 112.519 120.382C117.343 124.335 124.458 123.628 128.41 118.804Z" fill="black"/>
<path opacity="0.2" d="M130.664 114.268C130.612 114.492 130.552 114.704 130.488 114.92L108.476 110.224C108.528 109.832 108.6 109.44 108.692 109.04C110.132 102.972 116.22 99.224 122.292 100.664C128.36 102.104 132.108 108.192 130.668 114.264L130.664 114.268Z" fill="black"/>
<path d="M123.17 120.001C127.785 118.072 129.963 112.768 128.034 108.153C126.106 103.538 120.801 101.361 116.187 103.289C111.572 105.218 109.394 110.522 111.323 115.137C113.251 119.751 118.556 121.929 123.17 120.001Z" fill="#263238"/>
<path d="M121.95 106.716L119.864 106.22L117.395 116.607L119.481 117.103L121.95 106.716Z" fill="#B9B8F1"/>
<path d="M131.32 114.056L108.2 108.56C109.716 102.176 116.124 98.232 122.508 99.748C128.892 101.264 132.84 107.668 131.32 114.052V114.056Z" fill="#B9B8F1"/>
<path opacity="0.2" d="M131.32 114.056L108.2 108.56C109.716 102.176 116.124 98.232 122.508 99.748C128.892 101.264 132.84 107.668 131.32 114.052V114.056Z" fill="black"/>
<path opacity="0.1" d="M100.028 118.368C100.088 117.464 100.42 116.548 101.072 115.824C101.396 115.46 101.824 115.172 102.3 115C102.776 114.824 103.292 114.792 103.78 114.836C104.276 114.896 104.784 115.068 105.2 115.384C105.608 115.704 105.916 116.12 106.1 116.572C106.476 117.468 106.52 118.424 106.336 119.312C106.184 118.424 105.956 117.564 105.54 116.856C105.128 116.144 104.472 115.7 103.696 115.632C102.9 115.532 102.128 115.748 101.504 116.272C100.88 116.8 100.404 117.552 100.032 118.368H100.028Z" fill="black"/>
<path d="M77.488 95.336C77.58 94.128 77.716 92.928 77.832 91.724C77.96 90.524 78.092 89.32 78.24 88.124C78.38 86.924 78.536 85.728 78.688 84.528C78.84 83.328 79.012 82.136 79.172 80.936L79.216 80.616L79.54 80.636C82.144 80.8 84.744 81.012 87.34 81.276C88.64 81.408 89.936 81.56 91.228 81.728C92.52 81.912 93.816 82.084 95.1 82.32L87.292 81.836L79.492 81.332L79.86 81.032C79.684 82.228 79.52 83.424 79.332 84.616C79.148 85.808 78.964 87.004 78.768 88.196C78.576 89.388 78.372 90.58 78.16 91.768C77.936 92.956 77.732 94.148 77.488 95.332V95.336Z" fill="white"/>
<path d="M79.3641 104.464C79.6281 103.012 80.284 101.632 81.172 100.428C81.392 100.124 81.6441 99.844 81.8841 99.556C82.1441 99.288 82.4161 99.024 82.6841 98.76C82.9761 98.524 83.272 98.288 83.572 98.06C83.892 97.856 84.2041 97.648 84.5281 97.452C84.8681 97.288 85.2081 97.12 85.5521 96.964L86.624 96.592L87.736 96.364C88.108 96.308 88.488 96.3 88.86 96.268C90.364 96.228 91.8481 96.552 93.2081 97.1C91.7601 96.828 90.3161 96.68 88.8961 96.816C87.4761 96.948 86.1 97.372 84.868 98.068C83.624 98.744 82.5281 99.68 81.5961 100.768C80.6721 101.86 79.904 103.096 79.36 104.464H79.3641Z" fill="white"/>
<path d="M110.516 107.512C110.976 106.112 111.82 104.832 112.864 103.764C113.124 103.496 113.412 103.252 113.688 103C113.984 102.768 114.288 102.548 114.592 102.324C114.916 102.128 115.24 101.936 115.568 101.752C115.912 101.596 116.252 101.432 116.6 101.284C116.96 101.168 117.32 101.048 117.684 100.94L118.796 100.72L119.928 100.648C120.304 100.648 120.68 100.688 121.056 100.712C122.552 100.88 123.976 101.404 125.248 102.136C123.852 101.668 122.444 101.32 121.016 101.256C119.592 101.192 118.168 101.42 116.852 101.94C115.528 102.44 114.308 103.216 113.24 104.16C112.172 105.112 111.244 106.232 110.516 107.512Z" fill="white"/>
<path d="M75.656 143.7C72.764 143.7 66.432 143.048 62.356 137.812C57.144 131.108 59.028 118.248 59.108 117.7L61.372 118.044C61.352 118.168 59.556 130.48 64.164 136.404C68.668 142.196 76.84 141.364 76.924 141.356L77.18 143.632C77.092 143.644 76.532 143.7 75.656 143.7Z" fill="#B9B8F1"/>
<path opacity="0.4" d="M75.656 143.7C72.764 143.7 66.432 143.048 62.356 137.812C57.144 131.108 59.028 118.248 59.108 117.7L61.372 118.044C61.352 118.168 59.556 130.48 64.164 136.404C68.668 142.196 76.84 141.364 76.924 141.356L77.18 143.632C77.092 143.644 76.532 143.7 75.656 143.7Z" fill="white"/>
<path d="M62.04 119.6C61.628 119.6 61.204 119.564 60.776 119.496C56.956 118.876 55.268 116.592 54.52 114.784C53.772 112.972 53.6 110.78 54.008 108.268L58.852 109.052C58.6 110.608 58.672 111.976 59.06 112.912C59.336 113.576 59.868 114.376 61.564 114.652C62.34 114.776 63.176 114.712 64.056 113.388C64.732 112.368 65.14 110.976 65.284 110.096L70.128 110.88C70.016 111.572 69.54 113.996 68.148 116.1C66.632 118.388 64.496 119.6 62.048 119.6H62.04Z" fill="#B9B8F1"/>
<path d="M80.44 150.252C80.432 150.148 76.336 149.492 76.336 149.492L74.348 136.128L79.308 134.168L80.44 150.248V150.252Z" fill="#B9B8F1"/>
<path opacity="0.2" d="M80.44 150.252C80.432 150.148 76.336 149.492 76.336 149.492L74.348 136.128L79.308 134.168L80.44 150.248V150.252Z" fill="black"/>
<path d="M120.92 150.276C120.932 150.172 125.04 149.608 125.04 149.608L127.324 136.292L122.408 134.224L120.92 150.276Z" fill="#B9B8F1"/>
<path opacity="0.2" d="M120.92 150.276C120.932 150.172 125.04 149.608 125.04 149.608L127.324 136.292L122.408 134.224L120.92 150.276Z" fill="black"/>
<path d="M78.736 131.18C78.736 131.18 111.852 129.764 123.036 131.628C123.036 131.628 119.752 163.672 119.572 164.292C119.572 164.292 86.632 164.204 81.484 164.292C81.484 164.292 78.692 142.984 78.736 131.18Z" fill="#B9B8F1"/>
<path opacity="0.2" d="M88.7961 139.964C88.7961 139.964 106.872 139.252 112.98 140.192C112.98 140.192 111.188 156.348 111.088 156.664C111.088 156.664 93.1041 156.62 90.2961 156.664C90.2961 156.664 89.0601 145.604 88.7961 139.968V139.964Z" fill="black"/>
<path opacity="0.2" d="M91.2641 156.652C90.8521 156.652 90.5201 156.656 90.2921 156.66C90.2921 156.66 89.0601 145.6 88.7921 139.96C88.7921 139.96 89.2041 139.944 89.9201 139.92L91.2641 156.652Z" fill="black"/>
<path d="M96.596 143.948C95.584 143.628 94.504 144.192 94.184 145.204C93.864 146.22 94.428 147.296 95.44 147.616C96.452 147.936 97.532 147.372 97.848 146.36C98.168 145.348 97.604 144.268 96.592 143.948H96.596ZM97.628 146.288C97.348 147.18 96.4 147.672 95.512 147.392C94.624 147.112 94.128 146.164 94.408 145.272C94.688 144.384 95.636 143.888 96.528 144.168C97.416 144.448 97.908 145.396 97.628 146.284V146.288ZM96.596 143.948C95.584 143.628 94.504 144.192 94.184 145.204C93.864 146.22 94.428 147.296 95.44 147.616C96.452 147.936 97.532 147.372 97.848 146.36C98.168 145.348 97.604 144.268 96.592 143.948H96.596ZM97.628 146.288C97.348 147.18 96.4 147.672 95.512 147.392C94.624 147.112 94.128 146.164 94.408 145.272C94.688 144.384 95.636 143.888 96.528 144.168C97.416 144.448 97.908 145.396 97.628 146.284V146.288ZM96.596 143.948C95.584 143.628 94.504 144.192 94.184 145.204C93.864 146.22 94.428 147.296 95.44 147.616C96.452 147.936 97.532 147.372 97.848 146.36C98.168 145.348 97.604 144.268 96.592 143.948H96.596ZM97.628 146.288C97.348 147.18 96.4 147.672 95.512 147.392C94.624 147.112 94.128 146.164 94.408 145.272C94.688 144.384 95.636 143.888 96.528 144.168C97.416 144.448 97.908 145.396 97.628 146.284V146.288ZM97.236 141.916C95.1 141.244 92.824 142.432 92.152 144.564C91.48 146.7 92.664 148.976 94.8 149.648C96.932 150.32 99.208 149.136 99.884 147C100.556 144.868 99.372 142.588 97.24 141.916H97.236ZM98.136 146.448C97.768 147.616 96.52 148.268 95.348 147.9C94.18 147.532 93.528 146.284 93.896 145.112C94.264 143.944 95.516 143.292 96.684 143.66C97.852 144.028 98.504 145.276 98.136 146.444V146.448ZM97.852 146.36C98.172 145.348 97.608 144.268 96.596 143.948C95.584 143.628 94.504 144.192 94.184 145.204C93.864 146.22 94.428 147.296 95.44 147.616C96.452 147.936 97.532 147.372 97.848 146.36H97.852ZM97.628 146.288C97.348 147.18 96.4 147.672 95.512 147.392C94.624 147.112 94.128 146.164 94.408 145.272C94.688 144.384 95.636 143.888 96.528 144.168C97.416 144.448 97.908 145.396 97.628 146.284V146.288ZM96.596 143.948C95.584 143.628 94.504 144.192 94.184 145.204C93.864 146.22 94.428 147.296 95.44 147.616C96.452 147.936 97.532 147.372 97.848 146.36C98.168 145.348 97.604 144.268 96.592 143.948H96.596ZM97.628 146.288C97.348 147.18 96.4 147.672 95.512 147.392C94.624 147.112 94.128 146.164 94.408 145.272C94.688 144.384 95.636 143.888 96.528 144.168C97.416 144.448 97.908 145.396 97.628 146.284V146.288ZM96.596 143.948C95.584 143.628 94.504 144.192 94.184 145.204C93.864 146.22 94.428 147.296 95.44 147.616C96.452 147.936 97.532 147.372 97.848 146.36C98.168 145.348 97.604 144.268 96.592 143.948H96.596ZM97.628 146.288C97.348 147.18 96.4 147.672 95.512 147.392C94.624 147.112 94.128 146.164 94.408 145.272C94.688 144.384 95.636 143.888 96.528 144.168C97.416 144.448 97.908 145.396 97.628 146.284V146.288Z" fill="#B9B8F1"/>
<path d="M95.5961 149.724L94.1081 149.252L93.86 150.332L95.18 150.748L95.5961 149.724Z" fill="#B9B8F1"/>
<path d="M92.9241 148.332L92.2041 146.948L91.2641 147.532L91.9081 148.764L92.9241 148.332Z" fill="#B9B8F1"/>
<path d="M92.0201 145.456L92.4881 143.972L91.4121 143.72L90.9921 145.044L92.0201 145.456Z" fill="#B9B8F1"/>
<path d="M93.412 142.784L94.792 142.068L94.208 141.128L92.98 141.768L93.412 142.784Z" fill="#B9B8F1"/>
<path d="M96.2841 141.88L97.7721 142.348L98.0201 141.272L96.7001 140.856L96.2841 141.88Z" fill="#B9B8F1"/>
<path d="M98.9561 143.272L99.6761 144.656L100.616 144.068L99.9761 142.84L98.9561 143.272Z" fill="#B9B8F1"/>
<path d="M99.8601 146.148L99.3921 147.632L100.468 147.884L100.888 146.56L99.8601 146.148Z" fill="#B9B8F1"/>
<path d="M98.4681 148.816L97.0881 149.536L97.6721 150.476L98.9001 149.836L98.4681 148.816Z" fill="#B9B8F1"/>
<path d="M103.136 149.604C102.536 149.212 101.736 149.384 101.344 149.984C100.952 150.584 101.124 151.384 101.724 151.776C102.324 152.168 103.124 151.996 103.516 151.396C103.904 150.796 103.736 149.996 103.14 149.604H103.136ZM103.38 151.308C103.036 151.836 102.332 151.984 101.808 151.64C101.28 151.296 101.132 150.592 101.476 150.068C101.82 149.54 102.524 149.392 103.048 149.736C103.572 150.08 103.724 150.78 103.38 151.308ZM103.136 149.604C102.536 149.212 101.736 149.384 101.344 149.984C100.952 150.584 101.124 151.384 101.724 151.776C102.324 152.168 103.124 151.996 103.516 151.396C103.904 150.796 103.736 149.996 103.14 149.604H103.136ZM103.38 151.308C103.036 151.836 102.332 151.984 101.808 151.64C101.28 151.296 101.132 150.592 101.476 150.068C101.82 149.54 102.524 149.392 103.048 149.736C103.572 150.08 103.724 150.78 103.38 151.308ZM103.136 149.604C102.536 149.212 101.736 149.384 101.344 149.984C100.952 150.584 101.124 151.384 101.724 151.776C102.324 152.168 103.124 151.996 103.516 151.396C103.904 150.796 103.736 149.996 103.14 149.604H103.136ZM103.38 151.308C103.036 151.836 102.332 151.984 101.808 151.64C101.28 151.296 101.132 150.592 101.476 150.068C101.82 149.54 102.524 149.392 103.048 149.736C103.572 150.08 103.724 150.78 103.38 151.308ZM103.916 148.4C102.652 147.576 100.964 147.936 100.14 149.196C99.3201 150.46 99.6761 152.148 100.936 152.972C102.2 153.792 103.888 153.436 104.712 152.172C105.536 150.912 105.176 149.22 103.916 148.396V148.4ZM103.68 151.504C103.228 152.196 102.3 152.392 101.612 151.94C100.92 151.492 100.724 150.56 101.176 149.872C101.628 149.18 102.556 148.984 103.244 149.436C103.936 149.884 104.132 150.812 103.68 151.504ZM103.512 151.396C103.9 150.796 103.732 149.996 103.136 149.604C102.536 149.212 101.736 149.384 101.344 149.984C100.952 150.584 101.124 151.384 101.724 151.776C102.324 152.168 103.124 151.996 103.516 151.396H103.512ZM103.38 151.308C103.036 151.836 102.332 151.984 101.808 151.64C101.28 151.296 101.132 150.592 101.476 150.068C101.82 149.54 102.524 149.392 103.048 149.736C103.572 150.08 103.724 150.78 103.38 151.308ZM103.136 149.604C102.536 149.212 101.736 149.384 101.344 149.984C100.952 150.584 101.124 151.384 101.724 151.776C102.324 152.168 103.124 151.996 103.516 151.396C103.904 150.796 103.736 149.996 103.14 149.604H103.136ZM103.38 151.308C103.036 151.836 102.332 151.984 101.808 151.64C101.28 151.296 101.132 150.592 101.476 150.068C101.82 149.54 102.524 149.392 103.048 149.736C103.572 150.08 103.724 150.78 103.38 151.308ZM103.136 149.604C102.536 149.212 101.736 149.384 101.344 149.984C100.952 150.584 101.124 151.384 101.724 151.776C102.324 152.168 103.124 151.996 103.516 151.396C103.904 150.796 103.736 149.996 103.14 149.604H103.136ZM103.38 151.308C103.036 151.836 102.332 151.984 101.808 151.64C101.28 151.296 101.132 150.592 101.476 150.068C101.82 149.54 102.524 149.392 103.048 149.736C103.572 150.08 103.724 150.78 103.38 151.308Z" fill="#DBDBDB"/>
<path d="M101.44 153.168L100.56 152.596L100.204 153.248L100.988 153.756L101.44 153.168Z" fill="#DBDBDB"/>
<path d="M99.9601 151.78L99.7441 150.756L99.0281 150.964L99.2201 151.88L99.9601 151.78Z" fill="#DBDBDB"/>
<path d="M99.8921 149.756L100.464 148.876L99.8121 148.52L99.3041 149.3L99.8921 149.756Z" fill="#DBDBDB"/>
<path d="M101.28 148.276L102.304 148.056L102.096 147.344L101.18 147.536L101.28 148.276Z" fill="#DBDBDB"/>
<path d="M103.304 148.208L104.184 148.78L104.54 148.128L103.76 147.616L103.304 148.208Z" fill="#DBDBDB"/>
<path d="M104.784 149.592L105.004 150.62L105.716 150.408L105.524 149.496L104.784 149.592Z" fill="#DBDBDB"/>
<path d="M104.852 151.62L104.28 152.5L104.932 152.856L105.444 152.072L104.852 151.62Z" fill="#DBDBDB"/>
<path d="M103.468 153.1L102.44 153.316L102.652 154.032L103.564 153.84L103.468 153.1Z" fill="#DBDBDB"/>
<path d="M122.236 160.564L123.512 160.804L127.152 136.152L125.7 135.884L122.236 160.564Z" fill="#B9B8F1"/>
<path d="M111.088 156.66L112.98 140.188L125.7 135.884C125.7 135.884 122.236 160.832 122.236 160.564L111.088 156.656V156.66Z" fill="#B9B8F1"/>
<path opacity="0.4" d="M111.088 156.66L112.98 140.188L125.7 135.884C125.7 135.884 122.236 160.832 122.236 160.564L111.088 156.656V156.66Z" fill="white"/>
<path d="M80.256 140.856C80.048 139.492 79.936 138.116 79.852 136.74C79.812 136.052 79.796 135.36 79.78 134.672C79.768 133.984 79.756 133.292 79.776 132.604V132.424L79.956 132.416C82.484 132.28 85.008 132.116 87.536 132.004C90.064 131.88 92.592 131.764 95.12 131.688C92.6 131.916 90.076 132.112 87.552 132.292C85.028 132.488 82.504 132.632 79.98 132.804L80.16 132.612L80.148 134.672L80.172 136.732C80.172 137.42 80.188 138.108 80.208 138.796L80.252 140.86L80.256 140.856Z" fill="white"/>
<path d="M114.752 140.432C115.54 140.056 116.34 139.708 117.152 139.388C117.96 139.06 118.776 138.748 119.6 138.464C120.424 138.184 121.252 137.908 122.096 137.672C122.936 137.436 123.784 137.216 124.652 137.076L124.864 137.04L124.824 137.244C124.624 138.312 124.416 139.376 124.168 140.436C124.26 139.352 124.392 138.276 124.532 137.2L124.708 137.368C123.868 137.568 123.036 137.804 122.204 138.048C121.372 138.296 120.544 138.556 119.72 138.828L114.752 140.436V140.432Z" fill="white"/>
<path opacity="0.1" d="M85.76 131.248L85.976 135.368L86.16 139.488L86.476 147.732L86.724 155.98L86.824 160.1L86.892 164.228L86.676 160.108L86.496 155.988L86.176 147.744L85.928 139.496L85.828 135.372L85.76 131.248Z" fill="black"/>
<path opacity="0.1" d="M84.58 133.732C84.66 134.088 84.448 134.508 84.048 134.628C83.856 134.688 83.628 134.668 83.436 134.56C83.248 134.452 83.108 134.256 83.064 134.04C83.02 133.824 83.072 133.588 83.204 133.416C83.336 133.244 83.54 133.136 83.74 133.116C84.156 133.068 84.512 133.38 84.576 133.736L84.58 133.732ZM84.58 133.732C84.544 133.552 84.428 133.392 84.272 133.304C84.116 133.216 83.928 133.208 83.776 133.256C83.456 133.36 83.3 133.7 83.36 133.976C83.412 134.256 83.684 134.508 84.02 134.48C84.184 134.468 84.352 134.384 84.46 134.244C84.572 134.104 84.616 133.912 84.58 133.732Z" fill="black"/>
<path opacity="0.1" d="M84.864 138.672C84.944 139.028 84.732 139.448 84.332 139.568C84.14 139.628 83.912 139.608 83.72 139.5C83.532 139.392 83.392 139.196 83.348 138.98C83.304 138.764 83.356 138.528 83.488 138.356C83.62 138.184 83.824 138.076 84.024 138.056C84.44 138.008 84.796 138.32 84.86 138.676L84.864 138.672ZM84.864 138.672C84.828 138.492 84.712 138.332 84.556 138.244C84.4 138.156 84.212 138.148 84.06 138.196C83.74 138.3 83.584 138.64 83.644 138.916C83.696 139.196 83.968 139.448 84.304 139.42C84.468 139.408 84.636 139.324 84.744 139.184C84.856 139.044 84.9 138.852 84.864 138.672Z" fill="black"/>
<path opacity="0.1" d="M85.044 143.916C85.124 144.272 84.912 144.692 84.512 144.812C84.32 144.872 84.092 144.852 83.9 144.744C83.712 144.636 83.572 144.44 83.528 144.224C83.484 144.008 83.536 143.772 83.672 143.6C83.804 143.428 84.008 143.32 84.208 143.3C84.624 143.252 84.98 143.564 85.044 143.92V143.916ZM85.044 143.916C85.008 143.736 84.892 143.576 84.736 143.488C84.58 143.4 84.392 143.392 84.24 143.44C83.92 143.544 83.764 143.884 83.824 144.16C83.876 144.44 84.148 144.692 84.484 144.664C84.648 144.652 84.816 144.568 84.924 144.428C85.036 144.288 85.08 144.096 85.044 143.916Z" fill="black"/>
<path opacity="0.1" d="M85.224 149.16C85.304 149.516 85.092 149.936 84.692 150.056C84.5 150.116 84.272 150.096 84.08 149.988C83.892 149.88 83.752 149.684 83.708 149.468C83.664 149.252 83.716 149.016 83.848 148.844C83.98 148.672 84.184 148.564 84.384 148.544C84.8 148.496 85.156 148.808 85.22 149.164L85.224 149.16ZM85.224 149.16C85.188 148.98 85.072 148.82 84.916 148.732C84.76 148.644 84.572 148.636 84.42 148.684C84.1 148.788 83.944 149.128 84.004 149.404C84.056 149.684 84.328 149.936 84.664 149.908C84.828 149.896 84.996 149.812 85.104 149.672C85.216 149.532 85.26 149.34 85.224 149.16Z" fill="black"/>
<path opacity="0.1" d="M85.404 154.4C85.484 154.756 85.272 155.176 84.872 155.296C84.68 155.356 84.452 155.336 84.26 155.228C84.072 155.12 83.932 154.924 83.888 154.708C83.844 154.492 83.896 154.256 84.028 154.084C84.16 153.912 84.364 153.804 84.564 153.784C84.98 153.736 85.336 154.048 85.4 154.404L85.404 154.4ZM85.404 154.4C85.368 154.22 85.252 154.06 85.096 153.972C84.94 153.884 84.752 153.876 84.6 153.924C84.28 154.028 84.124 154.368 84.184 154.644C84.236 154.924 84.508 155.176 84.844 155.148C85.008 155.136 85.176 155.052 85.284 154.912C85.396 154.772 85.44 154.58 85.404 154.4Z" fill="black"/>
<path opacity="0.1" d="M85.5841 159.644C85.6641 160 85.4521 160.42 85.0521 160.54C84.8601 160.6 84.6321 160.58 84.4401 160.472C84.2521 160.364 84.1121 160.168 84.0681 159.952C84.0241 159.736 84.0761 159.5 84.2081 159.328C84.3401 159.156 84.5441 159.048 84.7441 159.028C85.1601 158.98 85.5161 159.292 85.5801 159.648L85.5841 159.644ZM85.5841 159.644C85.5481 159.464 85.4321 159.304 85.2761 159.216C85.1201 159.128 84.9321 159.12 84.7801 159.168C84.4601 159.272 84.3041 159.612 84.3641 159.888C84.4161 160.168 84.6881 160.42 85.0241 160.392C85.1881 160.38 85.3561 160.296 85.4641 160.156C85.5761 160.016 85.6201 159.824 85.5841 159.644Z" fill="black"/>
<path d="M87.2079 167.661L68.458 173.343L69.1216 175.533L87.8715 169.85L87.2079 167.661Z" fill="#B9B8F1"/>
<path opacity="0.4" d="M87.2079 167.661L68.458 173.343L69.1216 175.533L87.8715 169.85L87.2079 167.661Z" fill="white"/>
<path d="M78.2207 169.641L76.0403 170.335L77.0706 173.575L79.251 172.881L78.2207 169.641Z" fill="#B9B8F1"/>
<path d="M68.972 178.744L64.132 157.792L49.528 161.256L56.72 181.676L68.972 178.744Z" fill="#B9B8F1"/>
<path d="M72.212 177.68L68.972 178.744L64.132 157.792L68.792 158.904L72.212 177.68Z" fill="#B9B8F1"/>
<path opacity="0.2" d="M72.212 177.68L68.972 178.744L64.132 157.792L68.792 158.904L72.212 177.68Z" fill="black"/>
<path d="M87.544 171.24C88.9159 171.24 90.028 170.128 90.028 168.756C90.028 167.384 88.9159 166.272 87.544 166.272C86.1721 166.272 85.06 167.384 85.06 168.756C85.06 170.128 86.1721 171.24 87.544 171.24Z" fill="#B9B8F1"/>
<path d="M113.126 167.608L112.457 169.797L131.195 175.518L131.864 173.33L113.126 167.608Z" fill="#B9B8F1"/>
<path opacity="0.4" d="M113.126 167.608L112.457 169.797L131.195 175.518L131.864 173.33L113.126 167.608Z" fill="white"/>
<path d="M122.1 169.588L121.063 172.826L123.242 173.525L124.279 170.287L122.1 169.588Z" fill="#B9B8F1"/>
<path d="M131.344 178.728L136.224 157.784L150.824 161.28L143.588 181.684L131.344 178.728Z" fill="#B9B8F1"/>
<path d="M128.104 177.656L131.344 178.728L136.224 157.784L131.564 158.884L128.104 177.656Z" fill="#B9B8F1"/>
<path opacity="0.2" d="M128.104 177.656L131.344 178.728L136.224 157.784L131.564 158.884L128.104 177.656Z" fill="black"/>
<path d="M110.304 168.696C110.304 170.068 111.412 171.184 112.784 171.188C114.156 171.188 115.272 170.08 115.276 168.708C115.276 167.336 114.168 166.22 112.796 166.216C111.424 166.216 110.308 167.324 110.304 168.696Z" fill="#B9B8F1"/>
<path d="M129.064 142.852C129.124 142.796 135.144 137.212 142.228 139.12C149.472 141.076 155.456 151.988 155.512 152.096L157.524 151.008C157.264 150.524 151.024 139.12 142.82 136.908C134.476 134.66 127.764 140.92 127.48 141.188L129.056 142.848L129.064 142.852Z" fill="#B9B8F1"/>
<path opacity="0.4" d="M129.064 142.852C129.124 142.796 135.144 137.212 142.228 139.12C149.472 141.076 155.456 151.988 155.512 152.096L157.524 151.008C157.264 150.524 151.024 139.12 142.82 136.908C134.476 134.66 127.764 140.92 127.48 141.188L129.056 142.848L129.064 142.852Z" fill="white"/>
<path d="M152.848 163.084L157.188 160.792C156.772 160.004 156.26 158.648 156.184 157.424C156.088 155.84 156.716 155.28 157.412 154.916C158.932 154.112 159.84 154.432 160.46 154.796C161.328 155.308 162.212 156.36 162.948 157.752L167.288 155.46C166.1 153.212 164.644 151.564 162.956 150.568C161.272 149.576 158.548 148.768 155.124 150.576C152.456 151.984 151.096 154.52 151.292 157.72C151.444 160.24 152.528 162.46 152.852 163.08L152.848 163.084Z" fill="#B9B8F1"/>
<path d="M129.98 135.208C130.92 134.56 131.884 133.948 132.848 133.34C133.812 132.728 134.792 132.148 135.772 131.564C136.756 130.988 137.74 130.416 138.74 129.868L140.24 129.048C140.748 128.788 141.248 128.516 141.764 128.264C141.296 128.592 140.816 128.9 140.34 129.216L138.896 130.132C137.932 130.74 136.952 131.324 135.972 131.908C134.988 132.484 134.004 133.056 133 133.604C132 134.156 131 134.7 129.976 135.208H129.98Z" fill="#263238"/>
<path d="M127.488 144.568C128.836 145.336 130.112 146.2 131.368 147.092C132.62 147.992 133.856 148.916 135.016 149.94C133.668 149.172 132.392 148.308 131.136 147.416C129.884 146.516 128.652 145.592 127.488 144.568Z" fill="#263238"/>
<path d="M129.7 143.416C130.74 143.732 131.764 144.088 132.784 144.452C133.808 144.812 134.816 145.2 135.828 145.588C136.836 145.984 137.844 146.384 138.84 146.808L140.332 147.448C140.824 147.676 141.324 147.888 141.812 148.128C141.292 147.972 140.78 147.796 140.264 147.632L138.732 147.096C137.708 146.736 136.7 146.348 135.688 145.96C134.68 145.564 133.672 145.164 132.676 144.74C131.68 144.316 130.684 143.888 129.704 143.42L129.7 143.416Z" fill="#263238"/>
<path d="M132.652 136.088C133.648 135.828 134.652 135.612 135.656 135.404C136.66 135.192 137.668 135.008 138.68 134.824C139.692 134.652 140.704 134.48 141.72 134.336L143.244 134.124C143.756 134.068 144.264 134 144.776 133.956C144.28 134.088 143.776 134.196 143.276 134.32L141.772 134.64C140.768 134.852 139.76 135.036 138.748 135.22C137.736 135.392 136.724 135.564 135.708 135.708C134.692 135.856 133.676 135.992 132.652 136.088Z" fill="#263238"/>
<path d="M108.648 142.316C108.816 141.508 109.088 140.716 109.44 139.968C109.792 139.216 110.22 138.496 110.76 137.856C111.3 137.224 111.968 136.664 112.772 136.356C113.572 136.056 114.492 136.06 115.296 136.38C116.108 136.696 116.752 137.38 117.096 138.168C117.276 138.56 117.388 138.98 117.436 139.412C117.476 139.844 117.46 140.288 117.288 140.72C117.2 140.932 117.064 141.144 116.848 141.288C116.744 141.36 116.612 141.404 116.488 141.424C116.364 141.44 116.236 141.436 116.088 141.388C115.82 141.276 115.688 141.06 115.572 140.864C115.468 140.664 115.388 140.456 115.336 140.248C115.112 139.412 115.088 138.564 115.128 137.724C115.248 136.052 115.688 134.38 116.588 132.94C117.044 132.228 117.612 131.576 118.324 131.096C119.024 130.616 119.844 130.284 120.68 130.188C121.092 130.088 121.516 130.096 121.936 130.076C122.148 130.052 122.356 130.104 122.564 130.116C122.772 130.144 122.984 130.14 123.188 130.2C124.02 130.348 124.8 130.684 125.528 131.088C126.252 131.508 126.9 132.044 127.488 132.624C128.072 133.212 128.604 133.856 129.032 134.564C128.088 133.216 126.868 132.044 125.432 131.256C124.708 130.88 123.944 130.572 123.14 130.448C122.944 130.392 122.736 130.404 122.536 130.38C122.332 130.376 122.132 130.328 121.932 130.356C121.528 130.384 121.12 130.384 120.728 130.488C119.92 130.6 119.172 130.924 118.516 131.376C117.856 131.828 117.32 132.452 116.892 133.132C116.044 134.508 115.628 136.132 115.524 137.748C115.48 138.556 115.5 139.38 115.7 140.148C115.796 140.516 115.968 140.928 116.22 141.044C116.252 141.044 116.272 141.064 116.312 141.064C116.352 141.064 116.392 141.068 116.432 141.064C116.508 141.052 116.58 141.032 116.644 140.984C116.776 140.9 116.88 140.756 116.948 140.588C117.088 140.248 117.116 139.844 117.08 139.456C117.04 139.064 116.94 138.676 116.78 138.316C116.464 137.596 115.904 136.976 115.176 136.672C114.452 136.364 113.608 136.34 112.856 136.6C112.1 136.872 111.452 137.392 110.908 137.992C109.82 139.212 109.084 140.736 108.648 142.324V142.316Z" fill="#263238"/>
<path d="M71.688 152.68C72.076 151.952 72.64 151.324 73.304 150.824C73.964 150.328 74.728 149.94 75.544 149.752C76.356 149.556 77.232 149.552 78.044 149.8C78.86 150.044 79.592 150.52 80.18 151.128C80.772 151.736 81.212 152.476 81.516 153.26C81.812 154.048 81.992 154.888 81.928 155.752C81.884 156.176 81.8 156.632 81.464 157C81.296 157.18 81.04 157.3 80.792 157.304C80.552 157.304 80.324 157.264 80.104 157.148C79.884 157.036 79.708 156.836 79.608 156.62C79.508 156.4 79.468 156.172 79.456 155.948C79.44 155.5 79.536 155.076 79.668 154.668C79.936 153.856 80.376 153.128 80.892 152.464C81.408 151.804 82.02 151.212 82.704 150.724C84.06 149.74 85.784 149.192 87.468 149.412C88.3 149.524 89.124 149.764 89.852 150.188C90.588 150.596 91.224 151.168 91.74 151.816C92.26 152.468 92.664 153.204 92.972 153.968C93.284 154.732 93.512 155.532 93.624 156.348C93.288 154.744 92.628 153.188 91.58 151.948C91.06 151.328 90.432 150.796 89.72 150.42C89.016 150.032 88.224 149.82 87.428 149.732C85.828 149.556 84.204 150.068 82.916 151.024C81.628 151.972 80.572 153.296 80.04 154.792C79.916 155.164 79.828 155.556 79.84 155.932C79.848 156.304 79.98 156.664 80.28 156.816C80.42 156.896 80.612 156.928 80.78 156.932C80.944 156.928 81.088 156.864 81.2 156.744C81.432 156.5 81.532 156.1 81.568 155.72C81.632 154.94 81.468 154.132 81.188 153.384C80.904 152.636 80.484 151.936 79.94 151.352C79.396 150.768 78.712 150.312 77.956 150.064C77.2 149.812 76.372 149.792 75.584 149.96C74.008 150.296 72.548 151.28 71.68 152.676L71.688 152.68Z" fill="#263238"/>
<path d="M53.18 56.084C53.136 54.44 52.784 52.78 52.02 51.336C51.636 50.62 51.128 49.96 50.46 49.516C49.792 49.084 48.964 48.904 48.188 49.032C47.408 49.156 46.716 49.624 46.236 50.248C45.992 50.56 45.804 50.912 45.672 51.28C45.544 51.648 45.472 52.048 45.528 52.412C45.556 52.592 45.62 52.76 45.728 52.872C45.78 52.932 45.844 52.968 45.916 53C45.948 53.02 45.992 53.02 46.028 53.032C46.068 53.04 46.092 53.032 46.124 53.032C46.396 52.98 46.664 52.62 46.844 52.288C47.224 51.592 47.44 50.796 47.588 50C47.872 48.408 47.856 46.732 47.36 45.192C47.108 44.428 46.736 43.7 46.2 43.1C45.668 42.504 45.02 42.012 44.264 41.708C43.908 41.512 43.512 41.416 43.128 41.292C42.936 41.216 42.732 41.216 42.532 41.172C42.332 41.144 42.132 41.088 41.932 41.092C41.12 41.02 40.304 41.14 39.516 41.332C37.936 41.752 36.472 42.6 35.232 43.684C35.816 43.096 36.484 42.6 37.192 42.168C37.904 41.744 38.66 41.376 39.464 41.144C40.268 40.928 41.108 40.788 41.948 40.844C42.16 40.832 42.364 40.888 42.576 40.912C42.784 40.952 42.996 40.952 43.196 41.024C43.6 41.144 44.016 41.236 44.392 41.432C45.18 41.724 45.9 42.244 46.464 42.876C47.04 43.508 47.436 44.28 47.708 45.08C48.24 46.692 48.268 48.424 47.984 50.076C47.824 50.9 47.596 51.72 47.18 52.476C47.076 52.664 46.952 52.848 46.804 53.02C46.648 53.18 46.464 53.356 46.176 53.404C46.024 53.42 45.896 53.392 45.78 53.344C45.66 53.296 45.548 53.224 45.46 53.128C45.28 52.94 45.2 52.7 45.164 52.472C45.1 52.016 45.192 51.576 45.332 51.168C45.48 50.76 45.688 50.38 45.956 50.04C46.48 49.36 47.268 48.848 48.132 48.736C48.988 48.616 49.884 48.832 50.588 49.316C51.292 49.808 51.808 50.508 52.18 51.252C52.552 52.004 52.796 52.804 52.96 53.62C53.12 54.432 53.196 55.264 53.168 56.092L53.18 56.084Z" fill="#263238"/>
<path d="M141.508 76.948C139.896 76.608 138.204 76.56 136.62 76.968C135.836 77.176 135.072 77.516 134.488 78.06C133.912 78.608 133.544 79.372 133.488 80.156C133.424 80.94 133.72 81.724 134.216 82.336C134.46 82.644 134.76 82.912 135.088 83.124C135.416 83.332 135.788 83.496 136.152 83.528C136.332 83.544 136.512 83.516 136.644 83.44C136.712 83.404 136.764 83.348 136.812 83.288C136.836 83.26 136.848 83.22 136.868 83.184C136.884 83.148 136.88 83.12 136.892 83.092C136.904 82.816 136.616 82.472 136.336 82.216C135.748 81.684 135.024 81.288 134.288 80.96C132.804 80.312 131.172 79.936 129.56 80.06C128.76 80.128 127.964 80.32 127.256 80.7C126.552 81.076 125.92 81.592 125.452 82.26C125.176 82.56 124.992 82.924 124.78 83.268C124.664 83.436 124.612 83.636 124.524 83.816C124.452 84.004 124.348 84.184 124.308 84.384C124.052 85.156 123.972 85.976 123.976 86.792C124.016 88.428 124.496 90.048 125.264 91.508C124.832 90.804 124.504 90.036 124.248 89.248C124 88.456 123.82 87.636 123.78 86.8C123.756 85.968 123.816 85.12 124.068 84.312C124.108 84.104 124.208 83.916 124.28 83.72C124.368 83.528 124.416 83.32 124.532 83.144C124.744 82.78 124.928 82.396 125.208 82.076C125.676 81.376 126.348 80.8 127.096 80.4C127.848 79.988 128.688 79.784 129.532 79.704C131.224 79.564 132.912 79.94 134.452 80.6C135.216 80.948 135.96 81.36 136.6 81.944C136.76 82.088 136.908 82.252 137.04 82.436C137.16 82.628 137.288 82.844 137.268 83.136C137.244 83.288 137.192 83.404 137.12 83.508C137.044 83.612 136.948 83.708 136.832 83.768C136.604 83.896 136.352 83.92 136.128 83.9C135.668 83.856 135.264 83.664 134.9 83.432C134.54 83.192 134.216 82.9 133.948 82.56C133.408 81.892 133.096 81.008 133.188 80.14C133.272 79.276 133.692 78.46 134.324 77.884C134.968 77.312 135.768 76.976 136.58 76.788C137.396 76.6 138.236 76.552 139.064 76.584C139.892 76.616 140.72 76.736 141.516 76.96L141.508 76.948Z" fill="#263238"/>
<path d="M116.744 51.068C116.472 50.12 116.432 49.108 116.588 48.128C116.74 47.148 117.072 46.188 117.616 45.344C118.148 44.5 118.896 43.768 119.796 43.304C120.692 42.836 121.716 42.632 122.724 42.664C123.736 42.692 124.728 42.952 125.64 43.368C126.552 43.792 127.404 44.364 128.068 45.148C128.384 45.544 128.688 46.004 128.708 46.584C128.716 46.868 128.6 47.176 128.396 47.384C128.192 47.58 127.972 47.736 127.692 47.816C127.416 47.9 127.112 47.88 126.848 47.78C126.584 47.68 126.364 47.516 126.168 47.336C125.784 46.972 125.512 46.528 125.288 46.072C124.844 45.156 124.608 44.168 124.496 43.172C124.384 42.176 124.416 41.164 124.588 40.176C124.924 38.204 125.94 36.3 127.556 35.084C128.36 34.484 129.26 34 130.236 33.752C131.204 33.488 132.224 33.44 133.208 33.56C134.196 33.684 135.156 33.968 136.064 34.36C136.972 34.752 137.84 35.24 138.62 35.84C136.996 34.74 135.128 33.952 133.184 33.76C132.216 33.66 131.232 33.728 130.304 34C129.368 34.256 128.512 34.74 127.752 35.332C127 35.936 126.36 36.676 125.892 37.516C125.42 38.356 125.112 39.284 124.948 40.236C124.636 42.136 124.836 44.156 125.64 45.896C125.848 46.324 126.1 46.736 126.432 47.052C126.756 47.368 127.184 47.576 127.584 47.448C127.78 47.396 127.976 47.26 128.124 47.12C128.264 46.976 128.34 46.788 128.336 46.58C128.332 46.16 128.076 45.732 127.784 45.372C127.18 44.644 126.36 44.084 125.492 43.68C124.62 43.276 123.668 43.028 122.708 42.984C121.748 42.94 120.776 43.124 119.92 43.552C119.06 43.972 118.328 44.652 117.796 45.46C116.728 47.072 116.308 49.144 116.744 51.068Z" fill="#263238"/>
<path d="M70.348 152.768C69.452 152.484 68.496 152.984 68.216 153.88C67.932 154.776 68.432 155.732 69.328 156.012C70.224 156.296 71.176 155.796 71.46 154.9C71.744 154.004 71.244 153.048 70.352 152.768H70.348ZM71.26 154.84C71.012 155.628 70.172 156.064 69.388 155.816C68.6 155.568 68.164 154.728 68.412 153.944C68.66 153.156 69.5 152.72 70.284 152.968C71.068 153.216 71.508 154.052 71.26 154.84ZM70.348 152.768C69.452 152.484 68.496 152.984 68.216 153.88C67.932 154.776 68.432 155.732 69.328 156.012C70.224 156.296 71.176 155.796 71.46 154.9C71.744 154.004 71.244 153.048 70.352 152.768H70.348ZM71.26 154.84C71.012 155.628 70.172 156.064 69.388 155.816C68.6 155.568 68.164 154.728 68.412 153.944C68.66 153.156 69.5 152.72 70.284 152.968C71.068 153.216 71.508 154.052 71.26 154.84ZM70.348 152.768C69.452 152.484 68.496 152.984 68.216 153.88C67.932 154.776 68.432 155.732 69.328 156.012C70.224 156.296 71.176 155.796 71.46 154.9C71.744 154.004 71.244 153.048 70.352 152.768H70.348ZM71.26 154.84C71.012 155.628 70.172 156.064 69.388 155.816C68.6 155.568 68.164 154.728 68.412 153.944C68.66 153.156 69.5 152.72 70.284 152.968C71.068 153.216 71.508 154.052 71.26 154.84ZM70.916 150.972C69.028 150.376 67.012 151.428 66.42 153.312C65.824 155.2 66.872 157.212 68.764 157.808C70.652 158.404 72.664 157.352 73.26 155.464C73.856 153.576 72.808 151.564 70.92 150.968L70.916 150.972ZM71.712 154.98C71.388 156.016 70.28 156.592 69.248 156.264C68.216 155.94 67.64 154.832 67.964 153.8C68.288 152.764 69.396 152.192 70.428 152.516C71.46 152.84 72.036 153.948 71.712 154.98ZM71.46 154.9C71.744 154.004 71.244 153.048 70.352 152.768C69.456 152.484 68.5 152.984 68.22 153.88C67.936 154.776 68.436 155.732 69.332 156.012C70.228 156.296 71.18 155.796 71.464 154.9H71.46ZM71.264 154.836C71.016 155.624 70.176 156.06 69.392 155.812C68.604 155.564 68.168 154.724 68.416 153.94C68.664 153.152 69.504 152.716 70.288 152.964C71.072 153.212 71.512 154.048 71.264 154.836ZM70.352 152.764C69.456 152.48 68.5 152.98 68.22 153.876C67.936 154.772 68.436 155.728 69.332 156.008C70.228 156.292 71.18 155.792 71.464 154.896C71.748 154 71.248 153.044 70.356 152.764H70.352ZM71.264 154.836C71.016 155.624 70.176 156.06 69.392 155.812C68.604 155.564 68.168 154.724 68.416 153.94C68.664 153.152 69.504 152.716 70.288 152.964C71.072 153.212 71.512 154.048 71.264 154.836ZM70.352 152.764C69.456 152.48 68.5 152.98 68.22 153.876C67.936 154.772 68.436 155.728 69.332 156.008C70.228 156.292 71.18 155.792 71.464 154.896C71.748 154 71.248 153.044 70.356 152.764H70.352ZM71.264 154.836C71.016 155.624 70.176 156.06 69.392 155.812C68.604 155.564 68.168 154.724 68.416 153.94C68.664 153.152 69.504 152.716 70.288 152.964C71.072 153.212 71.512 154.048 71.264 154.836Z" fill="#455A64"/>
<path d="M69.464 157.876L68.148 157.46L67.928 158.416L69.096 158.784L69.464 157.876Z" fill="#455A64"/>
<path d="M67.1 156.644L66.464 155.42L65.632 155.94L66.2 157.028L67.1 156.644Z" fill="#455A64"/>
<path d="M66.3 154.104L66.716 152.788L65.76 152.568L65.392 153.736L66.3 154.104Z" fill="#455A64"/>
<path d="M67.532 151.74L68.756 151.104L68.236 150.272L67.148 150.84L67.532 151.74Z" fill="#455A64"/>
<path d="M70.072 150.94L71.388 151.352L71.608 150.4L70.44 150.032L70.072 150.94Z" fill="#455A64"/>
<path d="M72.436 152.172L73.072 153.392L73.904 152.876L73.336 151.788L72.436 152.172Z" fill="#455A64"/>
<path d="M73.236 154.712L72.82 156.028L73.776 156.248L74.144 155.08L73.236 154.712Z" fill="#455A64"/>
<path d="M72.004 157.076L70.78 157.712L71.3 158.544L72.388 157.976L72.004 157.076Z" fill="#455A64"/>
<path d="M136.668 141.34C138.472 138.912 137.964 135.48 135.532 133.676C133.1 131.872 129.668 132.38 127.868 134.808C126.064 137.24 126.572 140.672 129.004 142.476C131.432 144.28 134.864 143.772 136.668 141.34ZM134.324 139.6C133.48 140.736 131.88 140.972 130.744 140.132C129.608 139.288 129.372 137.688 130.216 136.552C131.06 135.416 132.66 135.18 133.796 136.024C134.932 136.868 135.168 138.468 134.324 139.604V139.6Z" fill="#263238"/>
<path d="M129.984 142.92L128.292 141.664L127.496 142.932L129.004 144.048L129.984 142.92Z" fill="#263238"/>
<path d="M127.188 139.96L126.88 137.876L125.42 138.208L125.696 140.064L127.188 139.96Z" fill="#263238"/>
<path d="M127.304 135.888L128.56 134.196L127.292 133.4L126.176 134.908L127.304 135.888Z" fill="#263238"/>
<path d="M130.264 133.092L132.348 132.784L132.012 131.324L130.16 131.6L130.264 133.092Z" fill="#263238"/>
<path d="M134.336 133.208L136.028 134.46L136.82 133.196L135.316 132.076L134.336 133.208Z" fill="#263238"/>
<path d="M137.132 136.168L137.44 138.252L138.9 137.916L138.624 136.064L137.132 136.168Z" fill="#263238"/>
<path d="M137.016 140.236L135.76 141.928L137.028 142.724L138.144 141.22L137.016 140.236Z" fill="#263238"/>
<path d="M134.056 143.036L131.972 143.344L132.304 144.8L134.16 144.528L134.056 143.036Z" fill="#263238"/>
<path d="M130.308 138.336L131.472 139.804L133.324 139.528L134.012 137.788L132.848 136.32L130.996 136.592L130.308 138.336ZM132.516 137.584C132.78 137.78 132.836 138.152 132.64 138.416C132.444 138.68 132.072 138.736 131.808 138.54C131.544 138.344 131.488 137.972 131.684 137.708C131.88 137.444 132.252 137.388 132.516 137.584Z" fill="#263238"/>
<path d="M140.776 34.64C139.992 34.392 139.156 34.828 138.908 35.612C138.66 36.396 139.096 37.232 139.88 37.48C140.664 37.728 141.5 37.292 141.744 36.508C141.992 35.724 141.556 34.888 140.772 34.64H140.776ZM141.576 36.452C141.36 37.14 140.624 37.524 139.936 37.308C139.248 37.092 138.864 36.356 139.084 35.668C139.3 34.98 140.036 34.596 140.724 34.816C141.412 35.032 141.792 35.768 141.576 36.456V36.452ZM140.776 34.64C139.992 34.392 139.156 34.828 138.908 35.612C138.66 36.396 139.096 37.232 139.88 37.48C140.664 37.728 141.5 37.292 141.744 36.508C141.992 35.724 141.556 34.888 140.772 34.64H140.776ZM141.576 36.452C141.36 37.14 140.624 37.524 139.936 37.308C139.248 37.092 138.864 36.356 139.084 35.668C139.3 34.98 140.036 34.596 140.724 34.816C141.412 35.032 141.792 35.768 141.576 36.456V36.452ZM140.776 34.64C139.992 34.392 139.156 34.828 138.908 35.612C138.66 36.396 139.096 37.232 139.88 37.48C140.664 37.728 141.5 37.292 141.744 36.508C141.992 35.724 141.556 34.888 140.772 34.64H140.776ZM141.576 36.452C141.36 37.14 140.624 37.524 139.936 37.308C139.248 37.092 138.864 36.356 139.084 35.668C139.3 34.98 140.036 34.596 140.724 34.816C141.412 35.032 141.792 35.768 141.576 36.456V36.452ZM141.272 33.068C139.62 32.548 137.856 33.464 137.336 35.116C136.816 36.768 137.732 38.532 139.384 39.052C141.036 39.572 142.796 38.656 143.32 37.004C143.84 35.352 142.924 33.588 141.272 33.068ZM141.968 36.576C141.684 37.48 140.716 37.984 139.812 37.7C138.908 37.416 138.404 36.448 138.688 35.544C138.972 34.64 139.94 34.136 140.844 34.42C141.748 34.704 142.252 35.672 141.968 36.576ZM141.748 36.508C141.996 35.724 141.56 34.888 140.776 34.64C139.992 34.392 139.156 34.828 138.908 35.612C138.66 36.396 139.096 37.232 139.88 37.48C140.664 37.728 141.5 37.292 141.744 36.508H141.748ZM141.576 36.452C141.36 37.14 140.624 37.524 139.936 37.308C139.248 37.092 138.864 36.356 139.084 35.668C139.3 34.98 140.036 34.596 140.724 34.816C141.412 35.032 141.792 35.768 141.576 36.456V36.452ZM140.776 34.64C139.992 34.392 139.156 34.828 138.908 35.612C138.66 36.396 139.096 37.232 139.88 37.48C140.664 37.728 141.5 37.292 141.744 36.508C141.992 35.724 141.556 34.888 140.772 34.64H140.776ZM141.576 36.452C141.36 37.14 140.624 37.524 139.936 37.308C139.248 37.092 138.864 36.356 139.084 35.668C139.3 34.98 140.036 34.596 140.724 34.816C141.412 35.032 141.792 35.768 141.576 36.456V36.452ZM140.776 34.64C139.992 34.392 139.156 34.828 138.908 35.612C138.66 36.396 139.096 37.232 139.88 37.48C140.664 37.728 141.5 37.292 141.744 36.508C141.992 35.724 141.556 34.888 140.772 34.64H140.776ZM141.576 36.452C141.36 37.14 140.624 37.524 139.936 37.308C139.248 37.092 138.864 36.356 139.084 35.668C139.3 34.98 140.036 34.596 140.724 34.816C141.412 35.032 141.792 35.768 141.576 36.456V36.452Z" fill="#263238"/>
<path d="M140 39.108L138.852 38.748L138.656 39.58L139.68 39.904L140 39.108Z" fill="#263238"/>
<path d="M137.932 38.032L137.376 36.96L136.652 37.416L137.144 38.368L137.932 38.032Z" fill="#263238"/>
<path d="M137.232 35.808L137.596 34.656L136.76 34.464L136.44 35.488L137.232 35.808Z" fill="#263238"/>
<path d="M138.312 33.74L139.38 33.184L138.928 32.456L137.976 32.952L138.312 33.74Z" fill="#263238"/>
<path d="M140.536 33.04L141.684 33.404L141.88 32.568L140.856 32.244L140.536 33.04Z" fill="#263238"/>
<path d="M142.604 34.116L143.16 35.188L143.888 34.732L143.392 33.78L142.604 34.116Z" fill="#263238"/>
<path d="M143.304 36.34L142.94 37.492L143.776 37.684L144.096 36.66L143.304 36.34Z" fill="#263238"/>
<path d="M142.224 38.408L141.156 38.964L141.608 39.692L142.56 39.196L142.224 38.408Z" fill="#263238"/>
<path d="M125.492 91.788C124.708 91.54 123.872 91.976 123.624 92.76C123.376 93.544 123.812 94.38 124.596 94.628C125.38 94.876 126.216 94.44 126.46 93.656C126.708 92.872 126.272 92.036 125.488 91.788H125.492ZM126.292 93.6C126.076 94.288 125.34 94.672 124.652 94.456C123.964 94.24 123.58 93.504 123.8 92.816C124.016 92.128 124.752 91.744 125.44 91.964C126.128 92.18 126.508 92.916 126.292 93.604V93.6ZM125.492 91.788C124.708 91.54 123.872 91.976 123.624 92.76C123.376 93.544 123.812 94.38 124.596 94.628C125.38 94.876 126.216 94.44 126.46 93.656C126.708 92.872 126.272 92.036 125.488 91.788H125.492ZM126.292 93.6C126.076 94.288 125.34 94.672 124.652 94.456C123.964 94.24 123.58 93.504 123.8 92.816C124.016 92.128 124.752 91.744 125.44 91.964C126.128 92.18 126.508 92.916 126.292 93.604V93.6ZM125.492 91.788C124.708 91.54 123.872 91.976 123.624 92.76C123.376 93.544 123.812 94.38 124.596 94.628C125.38 94.876 126.216 94.44 126.46 93.656C126.708 92.872 126.272 92.036 125.488 91.788H125.492ZM126.292 93.6C126.076 94.288 125.34 94.672 124.652 94.456C123.964 94.24 123.58 93.504 123.8 92.816C124.016 92.128 124.752 91.744 125.44 91.964C126.128 92.18 126.508 92.916 126.292 93.604V93.6ZM125.988 90.216C124.336 89.696 122.572 90.612 122.052 92.264C121.532 93.916 122.448 95.68 124.1 96.2C125.752 96.72 127.512 95.804 128.036 94.152C128.556 92.5 127.64 90.736 125.988 90.216ZM126.684 93.724C126.4 94.628 125.432 95.132 124.528 94.848C123.624 94.564 123.12 93.596 123.404 92.692C123.688 91.788 124.656 91.284 125.56 91.568C126.464 91.852 126.968 92.82 126.684 93.724ZM126.464 93.656C126.712 92.872 126.276 92.036 125.492 91.788C124.708 91.54 123.872 91.976 123.624 92.76C123.376 93.544 123.812 94.38 124.596 94.628C125.38 94.876 126.216 94.44 126.46 93.656H126.464ZM126.292 93.6C126.076 94.288 125.34 94.672 124.652 94.456C123.964 94.24 123.58 93.504 123.8 92.816C124.016 92.128 124.752 91.744 125.44 91.964C126.128 92.18 126.508 92.916 126.292 93.604V93.6ZM125.492 91.788C124.708 91.54 123.872 91.976 123.624 92.76C123.376 93.544 123.812 94.38 124.596 94.628C125.38 94.876 126.216 94.44 126.46 93.656C126.708 92.872 126.272 92.036 125.488 91.788H125.492ZM126.292 93.6C126.076 94.288 125.34 94.672 124.652 94.456C123.964 94.24 123.58 93.504 123.8 92.816C124.016 92.128 124.752 91.744 125.44 91.964C126.128 92.18 126.508 92.916 126.292 93.604V93.6ZM125.492 91.788C124.708 91.54 123.872 91.976 123.624 92.76C123.376 93.544 123.812 94.38 124.596 94.628C125.38 94.876 126.216 94.44 126.46 93.656C126.708 92.872 126.272 92.036 125.488 91.788H125.492ZM126.292 93.6C126.076 94.288 125.34 94.672 124.652 94.456C123.964 94.24 123.58 93.504 123.8 92.816C124.016 92.128 124.752 91.744 125.44 91.964C126.128 92.18 126.508 92.916 126.292 93.604V93.6Z" fill="#263238"/>
<path d="M124.716 96.256L123.564 95.892L123.372 96.728L124.396 97.048L124.716 96.256Z" fill="#263238"/>
<path d="M122.648 95.176L122.092 94.108L121.364 94.56L121.86 95.512L122.648 95.176Z" fill="#263238"/>
<path d="M121.948 92.952L122.308 91.804L121.476 91.608L121.152 92.632L121.948 92.952Z" fill="#263238"/>
<path d="M123.024 90.884L124.096 90.328L123.64 89.604L122.688 90.096L123.024 90.884Z" fill="#263238"/>
<path d="M125.248 90.184L126.4 90.548L126.592 89.712L125.568 89.392L125.248 90.184Z" fill="#263238"/>
<path d="M127.316 91.264L127.872 92.332L128.6 91.88L128.104 90.928L127.316 91.264Z" fill="#263238"/>
<path d="M128.016 93.488L127.652 94.636L128.488 94.832L128.812 93.808L128.016 93.488Z" fill="#263238"/>
<path d="M126.94 95.556L125.868 96.112L126.324 96.84L127.276 96.344L126.94 95.556Z" fill="#263238"/>
<path d="M38.008 46.796C38.624 44.264 37.072 41.712 34.54 41.096C32.008 40.48 29.456 42.032 28.84 44.564C28.224 47.096 29.776 49.648 32.308 50.264C34.84 50.88 37.392 49.328 38.008 46.796ZM35.564 46.2C35.276 47.384 34.084 48.108 32.904 47.82C31.72 47.532 30.996 46.34 31.284 45.156C31.572 43.972 32.764 43.248 33.948 43.536C35.132 43.824 35.856 45.016 35.568 46.196L35.564 46.2Z" fill="#263238"/>
<path d="M33.236 50.288L31.472 49.86L31.264 51.132L32.832 51.512L33.236 50.288Z" fill="#263238"/>
<path d="M30.024 48.876L29.08 47.328L28.036 48.08L28.876 49.46L30.024 48.876Z" fill="#263238"/>
<path d="M28.752 45.608L29.184 43.848L27.912 43.64L27.528 45.208L28.752 45.608Z" fill="#263238"/>
<path d="M30.164 42.4L31.716 41.456L30.96 40.412L29.584 41.248L30.164 42.4Z" fill="#263238"/>
<path d="M33.432 41.128L35.196 41.556L35.4 40.284L33.832 39.904L33.432 41.128Z" fill="#263238"/>
<path d="M36.644 42.54L37.584 44.088L38.632 43.336L37.792 41.956L36.644 42.54Z" fill="#263238"/>
<path d="M37.916 45.808L37.484 47.568L38.756 47.776L39.14 46.208L37.916 45.808Z" fill="#263238"/>
<path d="M36.504 49.016L34.952 49.96L35.708 51.004L37.084 50.168L36.504 49.016Z" fill="#263238"/>
<path d="M31.956 46.548L33.372 47.324L34.752 46.484L34.716 44.872L33.304 44.096L31.924 44.932L31.96 46.544L31.956 46.548ZM33.456 45.212C33.732 45.28 33.9 45.556 33.832 45.828C33.764 46.1 33.488 46.272 33.216 46.204C32.944 46.136 32.772 45.86 32.84 45.588C32.908 45.312 33.184 45.144 33.456 45.212Z" fill="#263238"/>
</svg>
